<svg xmlns="http://www.w3.org/2000/svg" width="196" height="36" viewBox="0 0 196 36" fill="none"><path d="M183.516 35.7391H178.974L184.346 27.1044V26.8435L178.974 18.2609H183.568L187.435 24.4696H187.695L191.458 18.2609H196L190.653 26.8174V27.0783L196 35.7391H191.406L187.539 29.5044H187.279L183.516 35.7391Z" fill="#261723"></path><path d="M169.856 36C168.108 36 166.611 35.6348 165.365 34.9043C164.137 34.1565 163.185 33.113 162.51 31.7739C161.853 30.4174 161.524 28.8261 161.524 27C161.524 25.1739 161.853 23.5913 162.51 22.2522C163.185 20.8957 164.137 19.8522 165.365 19.1217C166.611 18.3739 168.108 18 169.856 18C171.586 18 173.031 18.287 174.19 18.8609C175.367 19.4348 176.258 20.2522 176.863 21.313C177.469 22.3565 177.772 23.6 177.772 25.0435V25.2783H173.619V25.1478C173.619 23.8957 173.334 23.0261 172.763 22.5391C172.192 22.0348 171.214 21.7826 169.83 21.7826C168.843 21.7826 168.047 21.9304 167.442 22.2261C166.836 22.5217 166.386 23.0435 166.092 23.7913C165.815 24.5391 165.677 25.6087 165.677 27C165.677 28.3739 165.815 29.4435 166.092 30.2087C166.386 30.9565 166.836 31.4783 167.442 31.7739C168.047 32.0696 168.843 32.2174 169.83 32.2174C171.214 32.2174 172.192 31.9739 172.763 31.487C173.334 30.9826 173.619 30.1043 173.619 28.8522V28.7217H177.772V28.9565C177.772 30.4 177.469 31.6522 176.863 32.713C176.258 33.7565 175.367 34.5652 174.19 35.1391C173.031 35.713 171.586 36 169.856 36Z" fill="#261723"></path><path d="M158.49 35.7391H154.597V18.2609H158.49V35.7391Z" fill="#261723"></path><path d="M147.019 35.7391H143.126V18.2609H147.019V35.7391ZM152.625 21.7826H137.52V18.2609H152.625V21.7826Z" fill="#261723"></path><path d="M129.823 36C128.127 36 126.726 35.7739 125.618 35.3217C124.511 34.8696 123.689 34.2 123.152 33.313C122.616 32.4261 122.348 31.3391 122.348 30.0522V29.713H126.163V29.9739C126.163 30.6174 126.267 31.1217 126.475 31.487C126.682 31.8348 127.054 32.087 127.591 32.2435C128.144 32.3826 128.949 32.4522 130.004 32.4522C131.112 32.4522 131.847 32.3304 132.211 32.087C132.574 31.8435 132.756 31.4261 132.756 30.8348C132.756 30.4348 132.695 30.113 132.574 29.8696C132.47 29.6261 132.228 29.4261 131.847 29.2696C131.467 29.0957 130.87 28.9478 130.056 28.8261L126.994 28.2783C125.886 28.087 124.978 27.7739 124.269 27.3391C123.576 26.887 123.066 26.3304 122.737 25.6696C122.426 24.9913 122.27 24.2 122.27 23.2957C122.27 22.3913 122.495 21.5391 122.945 20.7391C123.412 19.9391 124.156 19.287 125.177 18.7826C126.215 18.2609 127.556 18 129.2 18C130.861 18 132.202 18.2609 133.223 18.7826C134.261 19.3043 135.022 20.0261 135.507 20.9478C135.991 21.8522 136.234 22.887 136.234 24.0522V24.2609H132.392V23.9739C132.392 23.3652 132.297 22.887 132.107 22.5391C131.916 22.1913 131.579 21.9391 131.095 21.7826C130.61 21.6261 129.935 21.5478 129.07 21.5478C127.963 21.5478 127.193 21.6783 126.76 21.9391C126.345 22.1826 126.137 22.5826 126.137 23.1391C126.137 23.5043 126.206 23.8 126.345 24.0261C126.483 24.2348 126.726 24.4 127.072 24.5217C127.435 24.6435 127.954 24.7739 128.629 24.913L131.717 25.513C132.929 25.7391 133.889 26.1043 134.598 26.6087C135.325 27.0957 135.844 27.687 136.156 28.3826C136.467 29.0783 136.623 29.8522 136.623 30.7043C136.623 31.6261 136.398 32.4957 135.948 33.313C135.498 34.113 134.78 34.7652 133.794 35.2696C132.808 35.7565 131.484 36 129.823 36Z" fill="#261723"></path><path d="M119 35.7391H115.107V18.2609H119V35.7391Z" fill="#261723"></path><path d="M107.53 35.7391H103.636V18.2609H107.53V35.7391ZM113.136 21.7826H98.0303V18.2609H113.136V21.7826Z" fill="#261723"></path><path d="M86.0419 35.7391H82.1487V18.2609H90.1427C91.527 18.2609 92.6949 18.4696 93.6466 18.887C94.6156 19.3044 95.3509 19.9131 95.8527 20.7131C96.3545 21.4957 96.6054 22.4522 96.6054 23.5826C96.6054 24.5217 96.4497 25.3391 96.1382 26.0348C95.8268 26.7131 95.3423 27.2522 94.6848 27.6522C94.0446 28.0348 93.2227 28.2783 92.2191 28.3826V28.6435C92.9631 28.8696 93.5514 29.2087 93.984 29.6609C94.4166 30.1131 94.7972 30.6783 95.126 31.3565L97.3321 35.7391H92.7901L90.7397 31.6957C90.4801 31.1913 90.2206 30.7826 89.961 30.4696C89.7188 30.1391 89.416 29.9044 89.0526 29.7652C88.7066 29.6087 88.2221 29.5304 87.5992 29.5304H86.0419V35.7391ZM86.0419 21.7826V26.2957H90.3244C91.2415 26.2957 91.873 26.1304 92.2191 25.8C92.5651 25.4696 92.7382 24.8783 92.7382 24.0261C92.7382 23.1913 92.5651 22.6087 92.2191 22.2783C91.873 21.9478 91.2415 21.7826 90.3244 21.7826H86.0419Z" fill="#261723"></path><path d="M65.8255 35.7391H61.7766L68.1874 18.2609H73.8455L80.2563 35.7391H76.0257L72.3661 25.6435L71.0943 21.7044H70.8348L69.5111 25.6435L65.8255 35.7391ZM76.8563 31.8522H65.3324V28.3565H76.8563V31.8522Z" fill="#261723"></path><path d="M35.9258 18L17.9967 0H17.946L0.0169301 18H0V36H35.9427V18H35.9258Z" fill="#C9F7CA"></path><path d="M53.8972 18L35.9682 0H35.9174L17.9884 18H17.9714V36H53.9141V18H53.8972Z" fill="url(#paint0_linear_7_212)"></path><defs><linearGradient id="paint0_linear_7_212" x1="35.9428" y1="18" x2="17.9428" y2="35.9713" gradientUnits="userSpaceOnUse"><stop stop-color="#A2A2FC"></stop><stop offset="1" stop-color="#C9F7CA"></stop></linearGradient></defs></svg>